<svg xmlns="http://www.w3.org/2000/svg" xmlns:xlink="http://www.w3.org/1999/xlink" viewBox="0,0,256,256" width="60px" height="60px" fill-rule="nonzero"><g fill="#ffffff" fill-rule="nonzero" stroke="none" stroke-width="1" stroke-linecap="butt" stroke-linejoin="miter" stroke-miterlimit="10" stroke-dasharray="" stroke-dashoffset="0" font-family="none" font-weight="none" font-size="none" text-anchor="none" style="mix-blend-mode: normal"><g transform="scale(8.53333,8.53333)"><path d="M24,4h-18c-1.105,0 -2,0.895 -2,2v18c0,1.105 0.895,2 2,2h18c1.105,0 2,-0.895 2,-2v-18c0,-1.105 -0.895,-2 -2,-2zM20,21.714c0,0.055 -0.022,0.11 -0.066,0.143c-0.055,0.055 -1.629,1.143 -4.505,1.143c-3.45,0 -3.429,-4.13 -3.429,-4.571v-4.571h-2.087c-0.111,0 -0.199,-0.088 -0.199,-0.199v-1.899c0,-0.088 0.045,-0.154 0.121,-0.187c0.033,-0.011 3.307,-1.453 3.307,-4.373c0.001,-0.112 0.089,-0.2 0.2,-0.2h1.889c0.11,0 0.198,0.088 0.198,0.199v4.373h3.23c0.099,0 0.199,0.088 0.199,0.199v1.889c0,0.11 -0.099,0.198 -0.199,0.198h-3.23v4.571c0,0.066 -0.105,1.456 1.371,1.456c1.213,0 2.88,-0.397 2.891,-0.397c0.066,-0.045 0.143,-0.045 0.199,-0.011c0.065,0.033 0.11,0.099 0.11,0.176z"></path></g></g></svg>